<?xml version="1.0" standalone="no"?>
<!DOCTYPE svg PUBLIC "-//W3C//DTD SVG 20010904//EN"
 "http://www.w3.org/TR/2001/REC-SVG-20010904/DTD/svg10.dtd">
<svg version="1.0" xmlns="http://www.w3.org/2000/svg"
 width="300.000000pt" height="300.000000pt" viewBox="0 0 300.000000 300.000000"
 preserveAspectRatio="xMidYMid meet">
<metadata>
Created by potrace 1.10, written by Peter Selinger 2001-2011
</metadata>
<g transform="translate(0.000000,300.000000) scale(0.100000,-0.100000)"
fill="#000000" stroke="none">
<path d="M1211 2405 c-119 -26 -267 -110 -304 -173 -23 -40 -11 -47 71 -45 51
1 78 8 149 42 92 44 168 60 286 61 81 0 90 -15 10 -18 -85 -4 -180 -26 -267
-63 -72 -32 -75 -34 -50 -43 19 -6 33 -24 50 -62 31 -69 65 -89 154 -86 89 3
155 -15 196 -50 30 -27 34 -28 34 -11 0 11 -10 29 -22 40 -45 41 -88 55 -178
58 -103 3 -121 11 -145 62 -10 21 -19 41 -22 45 -8 14 59 39 167 63 134 30
153 39 144 67 -6 21 -4 21 78 15 103 -8 255 -46 332 -82 191 -90 286 -304 230
-519 -36 -139 -121 -244 -252 -310 -96 -48 -100 -64 -37 -159 98 -148 349
-491 401 -547 30 -32 54 -60 54 -64 0 -9 -236 -7 -262 3 -54 21 -109 94 -328
441 -67 107 -134 207 -148 223 -30 32 -54 34 -90 8 -15 -10 -38 -24 -51 -31
-27 -14 -25 -8 15 45 38 51 72 136 79 200 11 103 -33 195 -123 257 -83 57
-172 68 -172 22 0 -9 23 -42 52 -73 65 -71 81 -110 81 -191 1 -92 -24 -135
-152 -260 -120 -118 -162 -183 -142 -226 15 -34 31 -30 76 17 40 41 171 139
186 139 5 0 -2 -17 -14 -37 -21 -36 -22 -50 -22 -223 1 -154 4 -193 19 -230
10 -25 20 -55 23 -68 l5 -22 -176 0 c-97 0 -176 2 -176 5 0 3 9 23 19 43 30
59 41 143 41 309 0 180 2 185 105 308 80 95 104 144 105 206 0 34 -5 51 -21
65 -21 19 -22 19 -53 -20 -17 -22 -72 -82 -122 -135 -50 -53 -99 -111 -108
-128 -9 -18 -19 -33 -21 -33 -3 0 -12 11 -21 24 -14 23 -14 27 4 53 11 15 26
61 32 101 12 71 11 74 -11 98 -16 17 -33 24 -59 24 l-36 0 0 50 c0 31 4 50 11
50 21 0 95 60 107 85 14 32 23 31 45 -2 12 -18 18 -47 18 -90 0 -73 14 -85 33
-28 25 76 -10 160 -89 212 -34 22 -51 26 -104 25 -35 0 -72 -6 -82 -12 -14 -9
-10 -10 22 -5 49 7 101 -7 132 -37 34 -32 28 -39 -14 -17 -39 20 -163 27 -163
10 0 -6 15 -7 33 -4 42 7 109 -12 131 -36 18 -19 16 -20 -61 -15 l-78 4 50
-14 c28 -8 54 -15 58 -16 5 0 5 -4 2 -10 -11 -17 -112 -11 -169 11 -60 22
-106 67 -106 104 0 24 39 80 40 57 0 -16 90 44 90 59 0 7 -35 10 -100 7 -116
-4 -141 -17 -124 -65 5 -16 13 -26 18 -25 5 2 21 -16 36 -40 24 -38 25 -45 14
-64 -13 -18 -10 -24 32 -65 l47 -44 -6 38 c-3 20 -3 37 -1 37 3 0 20 -11 37
-24 18 -13 42 -27 53 -30 30 -9 56 -41 52 -63 -5 -26 -46 -28 -73 -3 l-22 21
-6 -43 c-3 -24 -2 -68 2 -98 7 -47 13 -58 47 -85 92 -71 121 -108 143 -180 12
-39 27 -78 35 -88 12 -15 14 -13 18 26 10 83 51 152 158 262 75 77 100 109
100 129 0 14 5 26 11 26 16 0 7 -86 -14 -130 -10 -19 -46 -69 -82 -110 -35
-41 -76 -96 -90 -122 -26 -47 -27 -53 -28 -246 -2 -176 -4 -202 -23 -242 -20
-43 -84 -110 -104 -110 -6 0 -10 -3 -10 -7 0 -5 135 -8 300 -8 165 0 300 3
300 8 0 4 -4 7 -10 7 -5 0 -28 16 -49 36 -64 58 -76 106 -76 319 0 160 2 183
19 208 16 24 175 142 181 135 2 -2 67 -104 145 -228 192 -302 236 -368 279
-413 62 -66 67 -67 301 -67 115 0 210 3 210 8 0 4 -21 16 -46 26 -78 32 -166
126 -328 351 -173 239 -260 365 -255 369 2 1 24 9 49 17 108 34 238 171 279
294 84 255 -13 509 -235 615 -99 48 -241 81 -378 87 -125 6 -134 16 -26 28
104 12 112 20 32 33 -93 16 -251 14 -331 -3z m199 -39 c0 -8 3 -21 6 -29 4
-12 -12 -15 -98 -19 -94 -3 -110 -6 -183 -41 -80 -38 -165 -59 -165 -40 0 14
65 57 132 88 102 46 308 74 308 41z m-113 -590 c110 -52 160 -113 170 -209 12
-120 -46 -227 -178 -325 -126 -94 -168 -131 -196 -174 -36 -54 -41 -40 -7 23
19 33 68 89 137 153 120 112 154 167 164 258 9 88 -18 162 -80 223 -29 28 -61
55 -72 62 -37 22 8 14 62 -11z m-390 -280 c1 0 -5 -25 -12 -54 -8 -29 -12 -67
-8 -84 l6 -30 -61 31 c-70 35 -102 71 -102 116 l0 31 88 -4 c48 -2 88 -5 89
-6z"/>
<path d="M1423 2180 c-18 -11 -33 -21 -33 -22 0 -2 48 -3 108 -3 103 0 110 -1
184 -37 87 -42 151 -100 181 -167 17 -37 22 -66 22 -146 0 -92 -3 -105 -32
-167 -17 -37 -51 -87 -76 -111 -42 -42 -173 -124 -183 -115 -2 3 8 26 22 53
20 36 28 66 32 121 4 68 2 80 -27 139 -49 99 -126 153 -258 180 l-68 15 81 -3
c95 -4 184 -40 253 -103 64 -57 85 -105 85 -193 l-1 -75 29 34 c42 52 68 130
68 209 0 130 -84 243 -235 316 -77 37 -170 56 -163 33 3 -7 36 -25 75 -39 183
-68 283 -178 283 -314 0 -85 -12 -98 -39 -42 -35 73 -102 132 -243 216 -36 21
-54 24 -158 26 -64 1 -122 5 -128 9 -8 5 -12 -4 -12 -27 0 -47 -30 -81 -94
-108 l-54 -22 26 -40 c39 -59 37 -128 -6 -197 -36 -58 -35 -71 2 -47 54 36 84
160 55 234 -9 24 -8 30 8 38 21 12 82 73 103 104 12 18 21 21 42 16 15 -4 25
-12 22 -19 -7 -19 25 -42 86 -61 110 -35 170 -82 206 -160 30 -63 31 -126 3
-205 -38 -111 -10 -138 90 -89 75 37 168 124 200 187 81 158 61 346 -48 465
-100 109 -319 171 -408 117z"/>
<path d="M865 2108 c-22 -11 -48 -27 -58 -36 -13 -12 -20 -13 -29 -4 -19 19
-28 14 -28 -13 0 -14 -5 -25 -11 -25 -5 0 -27 -12 -47 -26 -30 -21 -32 -24
-12 -19 14 4 37 13 51 21 27 13 69 9 69 -8 0 -5 -7 -20 -16 -33 -22 -33 -7
-32 28 2 28 26 30 27 56 12 26 -14 31 -13 117 33 l90 48 -109 0 -108 0 26 35
c15 19 26 35 24 35 -2 -1 -21 -10 -43 -22z"/>
</g>
</svg>
